<?xml version="1.0" encoding="UTF-8" standalone="no"?>
<!-- Created with Inkscape (http://www.inkscape.org/) -->

<svg
   version="1.1"
   id="svg1115"
   width="1233.4209"
   height="723.76001"
   viewBox="0 0 1233.4209 723.76001"
   sodipodi:docname="1a.svg"
   inkscape:version="1.2.2 (732a01da63, 2022-12-09, custom)"
   xmlns:inkscape="http://www.inkscape.org/namespaces/inkscape"
   xmlns:sodipodi="http://sodipodi.sourceforge.net/DTD/sodipodi-0.dtd"
   xmlns="http://www.w3.org/2000/svg"
   xmlns:svg="http://www.w3.org/2000/svg">
  <defs
     id="defs1119" />
  <sodipodi:namedview
     id="namedview1117"
     pagecolor="#ffffff"
     bordercolor="#000000"
     borderopacity="0.25"
     inkscape:showpageshadow="2"
     inkscape:pageopacity="0.0"
     inkscape:pagecheckerboard="0"
     inkscape:deskcolor="#d1d1d1"
     showgrid="false"
     inkscape:zoom="0.91100744"
     inkscape:cx="598.2388"
     inkscape:cy="262.34692"
     inkscape:window-width="1920"
     inkscape:window-height="1031"
     inkscape:window-x="0"
     inkscape:window-y="25"
     inkscape:window-maximized="1"
     inkscape:current-layer="svg1115" />
  <g
     inkscape:groupmode="layer"
     id="layer2"
     inkscape:label="Layer 1">
    <path
       style="display:inline;fill:#000000"
       d="m 646.89601,867.93137 c -0.9485,-6.32508 1.03214,-14.377 4.9793,-20.24246 l 3.26123,-4.84617 -6.58499,-0.25605 c -13.84374,-0.53832 -15.79937,0.26833 -20.08498,8.28457 -3.88353,7.26414 -6.69068,5.57959 -5.40182,-3.24158 0.99735,-6.82593 4.10757,-12.6474 9.10936,-17.05015 4.30652,-3.79075 4.93989,-6.36235 1.45387,-5.90301 -0.91378,0.12041 -3.57913,-0.32681 -5.923,-0.99382 -3.72611,-1.06035 -4.81645,-0.96729 -8.67733,0.74056 -2.85286,1.26195 -5.37332,3.40029 -7.12129,6.04166 -4.86729,7.35496 -6.92372,4.44832 -3.94628,-5.57782 1.86357,-6.27531 7.023,-13.06644 12.3987,-16.31987 4.70172,-2.84552 4.93996,-3.70092 1.84051,-6.60829 -5.58776,-5.2415 -11.43954,-5.77857 -18.87399,-1.73224 -6.72928,3.66254 -7.97531,2.17551 -3.56996,-4.26045 3.93192,-5.74431 11.99685,-11.03332 18.25519,-11.97181 2.59939,-0.38981 5.03969,-1.52721 6.24106,-2.9089 2.39218,-2.75125 9.25767,-3.98118 14.20838,-2.54539 1.92137,0.55723 5.74781,1.01315 8.5032,1.01315 4.11767,0 5.88326,-0.62101 9.91483,-3.48736 6.22796,-4.42791 12.97659,-6.89443 23.08857,-8.43853 19.11225,-2.91844 25.48596,-5.84999 29.44376,-13.5425 5.12588,-9.96284 4.06685,-22.66284 -6.13166,-73.53161 -3.46543,-17.28505 -4.01569,-18.28213 -13.60282,-24.64795 -9.17634,-6.09306 -19.91369,-15.20829 -26.49977,-22.49639 l -6.36002,-7.03793 -6.20196,4.00852 c -9.39855,6.07458 -16.46051,8.05345 -34.64753,9.70881 -31.36385,2.8547 -28.60121,2.4073 -27.50564,4.45441 2.95927,5.52944 13.21787,8.0931 22.00564,5.49929 11.79392,-3.48112 12.22036,-3.34525 9.55119,3.04297 -2.46801,5.90677 -6.35871,10.08798 -12.32212,13.24218 -14.54062,7.69089 -44.26674,8.51506 -61.47907,1.70455 -1.5431,-0.61057 -1.75,-0.0179 -1.75,5.01342 0,10.8516 5.02154,16.24634 16.05357,17.24669 3.30179,0.2994 6.25405,0.95015 6.56057,1.44611 0.92948,1.50394 -4.41514,7.61831 -8.89803,10.17955 -7.43783,4.2495 -17.55559,7.02625 -25.71611,7.05761 -9.36607,0.036 -16.73225,-2.15653 -24.83052,-7.3907 -3.43033,-2.21713 -6.47208,-4.03114 -6.75945,-4.03114 -0.28737,0 -1.50762,2.1375 -2.71166,4.75 -3.29405,7.14736 -2.99595,23.47593 0.64838,35.51511 2.98064,9.84666 3.23379,15.27618 1.15325,24.73489 -2.72015,12.36653 -1.33711,18.05676 5.46871,22.5 4.08826,2.66905 3.57281,5.08795 -1.0075,4.72797 -8.00314,-0.629 -13.64951,-4.05409 -19.11006,-11.59215 l -2.85115,-3.9359 -0.022,3.40004 c -0.0121,1.87002 -0.91208,5.36168 -2,7.75924 -3.53931,7.79995 -2.58991,12.6599 3.77425,19.32025 2.15238,2.25255 3.28869,4.27137 2.93012,5.20578 -0.52356,1.3644 -1.07697,1.35893 -5.2163,-0.0515 -6.85267,-2.33494 -12.40857,-7.07911 -15.88976,-13.56825 -2.89074,-5.38857 -4.57631,-7.12426 -4.57631,-4.71243 0,0.57918 -1.125,2.70864 -2.5,4.73214 -3.79234,5.58093 -3.45966,11.59528 1,18.07849 1.925,2.79846 3.5,5.54895 3.5,6.11221 0,3.51206 -10.97433,-2.45354 -15.55047,-8.45317 -1.54698,-2.0282 -3.59903,-6.01302 -4.56011,-8.85517 -2.28193,-6.74826 -3.74524,-7.61847 -7.87091,-4.68073 -5.59488,3.9839 -7.21286,10.51892 -4.8197,19.46669 0.65934,2.46521 0.8776,4.80341 0.48502,5.196 -1.051,1.05099 -7.52866,-5.52951 -9.99089,-10.14951 -1.6518,-3.09935 -2.16295,-5.92922 -2.27013,-12.5681 -0.10088,-6.24798 -0.60549,-9.28107 -1.8635,-11.20104 -1.89448,-2.89134 -1.6702,-4.50968 1.65921,-11.97234 l 2.11537,-4.74147 -2.70721,-14.25853 c -6.00265,-31.61509 -7.92131,-40.81759 -11.10408,-53.25852 -4.10638,-16.05119 -5.75945,-28.41176 -5.88445,-44 -0.11256,-14.03699 1.50254,-19.82142 9.2003,-32.95075 5.83126,-9.94581 21.02739,-25.67697 30.66155,-31.74112 3.85,-2.42334 14.875,-7.73346 24.5,-11.80024 9.625,-4.06679 29.57118,-13.43718 44.32485,-20.8231 34.51639,-17.27944 39.9278,-21.90867 45.6499,-39.05151 1.16883,-3.5017 1.88774,-6.60412 1.59758,-6.89429 -0.91566,-0.91565 -35.38387,-9.06464 -45.44155,-10.74331 -13.36137,-2.23006 -28.01938,-6.12216 -38.45986,-10.21213 -4.856,-1.9023 -9.05496,-3.23285 -9.33102,-2.95678 -0.63281,0.6328 1.25314,4.22465 4.39629,8.37289 3.81461,5.03443 9.58141,7.30034 18.57953,7.30034 9.4594,0 9.78741,0.99211 2.67843,8.10109 -8.15958,8.15957 -14.25949,9.49072 -29.17877,6.3675 -14.50657,-3.03681 -25.02426,-9.76349 -35.25431,-22.54718 -12.36799,-15.4553 -17.63491,-19.60178 -30.27952,-23.83806 -9.10763,-3.0513 -9.59563,-2.93065 -8.76371,2.16665 1.36471,8.36184 6.37166,12.90104 15.40383,13.96479 3.58401,0.4221 3.52074,2.09266 -0.16165,4.2679 -5.17282,3.05566 -18.43153,3.29316 -30.51344,0.5466 -13.92372,-3.16527 -23.11588,-7.78374 -28.45712,-14.29789 -17.89764,-21.82786 -29.30408,-26.2537 -61.21253,-23.75124 -16.88953,1.32458 -21.88739,0.8282 -27.28764,-2.71018 -5.19494,-3.40386 -6.84116,-12.62315 -3.83642,-21.48503 1.06586,-3.14353 1.2054,-5.35047 0.52386,-8.28495 -1.40056,-6.03028 -1.16415,-11.16973 0.5947,-12.92857 2.21339,-2.21339 5.97513,-1.96288 15.05093,1.00229 18.70644,6.11163 31.04459,8.42687 44.85255,8.41651 11.59177,-0.009 13.5753,-0.26924 18.02509,-2.36765 2.75,-1.29684 6.06704,-3.51701 7.37121,-4.9337 l 2.3712,-2.57582 -6.3712,-4.12418 c -22.48122,-14.55246 -36.78647,-16.97713 -68.37121,-11.58857 -22.81225,3.89191 -42.53666,4.23659 -49.8295,0.87075 -2.65622,-1.22591 -6.57524,-3.61158 -8.70892,-5.30149 -5.38075,-4.26163 -13.57074,-15.42384 -15.96372,-21.75708 -2.67124,-7.06968 -2.67257,-17.93829 -0.003,-25.69709 3.89703,-11.32692 6.4608,-11.30248 6.48702,0.0618 0.0152,6.57695 0.47933,8.85703 2.73246,13.42276 6.13516,12.43221 12.57639,17.05187 24.78581,17.77641 8.88213,0.52709 17.3521,-0.92404 46.5,-7.96667 18.35574,-4.43507 22.25917,-5.06484 31,-5.0015 11.65032,0.0844 22.17813,2.48609 31.47921,7.18127 6.10056,3.07955 6.1816,3.09165 5.47816,0.81814 -2.56826,-8.30068 -7.41726,-13.42038 -15.52604,-16.3928 -8.35653,-3.06323 -11.00802,-3.36508 -15.66643,-1.78351 l -4.40435,1.49531 -4.18028,-3.41572 c -6.45627,-5.27545 -9.96952,-6.7122 -16.38061,-6.69888 -6.66727,0.0138 -11.21189,2.19534 -19.72504,9.46835 -2.90963,2.48578 -5.58965,4.5196 -5.95559,4.5196 -1.23629,0 -18.62997,-15.14772 -21.05523,-18.33647 -6.90038,-9.07269 -11.11549,-21.96789 -12.12967,-37.10804 -0.68251,-10.18894 -0.77956,-10.51017 -4.55575,-15.07988 -3.97592,-4.81144 -6.87833,-12.42314 -6.87833,-18.03883 v -3.20025 l 12.75,-0.4799 c 10.99038,-0.41367 14.47512,-0.99601 25.25,-4.21954 31.31045,-9.36718 51.38167,-14.53705 56.43783,-14.53705 h 5.28161 l 3.39028,-5.73826 c 2.91067,-4.92648 4.30982,-6.19133 9.89028,-8.9409 3.575,-1.76146 11.45,-4.87773 17.5,-6.92504 9.1729,-3.1041 12.41185,-3.73103 19.5,-3.77444 12.36332,-0.0757 34.82223,3.60582 40.88323,6.70169 1.43922,0.73514 6.71408,3.62639 11.7219,6.42502 11.57445,6.46839 17.67553,8.26585 27.82637,8.19801 17.67457,-0.11811 22.53293,-1.1718 35.81133,-7.76681 13.49379,-6.70199 27.03519,-10.5551 37.25717,-10.60128 8.03499,-0.0363 17.19819,4.73024 22.34415,11.62304 3.06744,4.10873 3.79521,4.60052 5.23222,3.53576 0.91805,-0.68023 7.01393,-5.32375 13.54641,-10.31893 22.94788,-17.54752 41.52217,-28.88749 62.01991,-37.86439 29.24051,-12.80575 46.89676,-14.44594 76.35731,-7.09328 20.14842,5.02857 25.34509,6.81687 42.62378,14.66791 12.11182,5.50333 16.0949,6.87027 20,6.8637 7.12823,-0.012 21.76791,-1.74886 30.37622,-3.60387 7.17762,-1.5467 60.14271,-19.43048 113.74245,-38.40538 34.44528,-12.19402 40.83358,-13.69176 68.25755,-16.00307 19.10507,-1.61018 72.04093,-2.14731 95.17423,-0.96571 37.4417,1.91245 54.8408,5.46712 88.6391,18.10925 39.764,14.87358 54.1817,22.01877 92.1867,45.68615 33.4403,20.82476 37.3359,24.15418 57.3725,49.03409 17.135,21.27684 23.8029,32.56772 41.0082,69.43953 8.0743,17.30386 21.9475,36.28838 29.7012,40.64422 6.3472,3.56568 16.8441,3.97255 28.3195,1.09769 5.4909,-1.37559 9.1688,-1.85448 9.7534,-1.26994 1.5106,1.51066 -8.6739,15.88202 -17.5948,24.82786 -14.9145,14.95626 -26.3885,17.93246 -44.6472,11.58077 -13.0338,-4.53411 -19.5659,-10.12144 -23.3651,-19.9856 -2.4369,-6.32737 -5.5833,-12.28371 -4.1354,-7.82865 0.3306,1.01703 1.0959,6.19203 1.7009,11.5 2.002,17.56777 -0.5469,36.97333 -9.0831,69.15086 -13.6954,51.62583 -12.7724,67.3728 4.9861,85.06183 11.3831,11.3386 19.8175,13.95579 33.4945,10.39338 9.2165,-2.4006 12.1332,-6.0864 10.3444,-13.07221 -2.1561,-8.42056 -2.1539,-8.383 -0.4842,-8.383 2.0717,0 6.352,6.75549 9.5041,15 2.1281,5.56619 2.4941,8.22395 2.5474,18.5 0.045,8.67563 -0.415,13.54782 -1.6606,17.58717 -2.3134,7.50187 -8.2558,14.12962 -15.7546,17.57164 l -5.8434,2.68218 2.3482,1.8471 c 3.9187,3.08243 10.7699,5.76672 14.7778,5.78995 7.5722,0.0439 15.998,-6.69224 21.192,-16.94214 1.4035,-2.76974 3.1639,-5.0359 3.9119,-5.0359 1.5416,0 5.0204,7.49383 6.5409,14.09022 2.3591,10.23445 0.6331,21.9102 -4.8292,32.66668 -3.5173,6.92638 -7.0626,10.45368 -13.2628,13.19531 l -4.6574,2.05944 6.521,6.24417 c 8.2194,7.87055 20.9156,22.70255 25.0359,29.24742 4.3858,6.96681 8.0581,15.5777 9.9687,23.37513 2.2652,9.24438 2.2726,29.57986 0.014,37.91503 -3.8837,14.33154 -12.5796,26.18568 -23.4651,31.98761 -12.0364,6.41535 -38.4883,15.56067 -62.7595,21.69813 -5.9838,1.51314 -14.4833,4.72468 -21.1631,7.99658 -10.0825,4.93853 -11.276,5.80985 -12.3289,9.00017 -1.2348,3.74139 -6.6935,7.71464 -12.508,9.10427 -1.65,0.39434 -5.2827,1.71509 -8.0727,2.93499 -6.1121,2.67246 -8.2829,6.45511 -8.667,15.10262 -0.5466,12.30418 -6.5326,4.99457 -7.511,-9.17175 -0.4097,-5.93262 -0.089,-8.03893 2.0155,-13.25 2.6857,-6.649 2.4384,-7.32364 -1.5377,-4.19602 -1.4854,1.16847 -4.0568,2 -6.1845,2 -7.4755,0 -12.5014,4.77126 -14.9005,14.14565 -2.6906,10.51375 -6.0876,4.50039 -5.4846,-9.70887 0.2859,-6.7361 0.8692,-9.07441 3.5286,-14.14617 l 3.1861,-6.07613 -5.3943,-0.67398 c -9.0557,-1.13143 -14.2317,2.66911 -17.8437,13.10203 -2.174,6.27946 -4.0859,4.97139 -4.4331,-3.03299 -0.3787,-8.73016 1.891,-16.20046 6.98,-22.97328 2.1004,-2.79534 3.8189,-5.57728 3.8189,-6.18209 0,-1.54651 -8.1742,-5.45417 -11.4092,-5.45417 -3.8547,0 -8.0763,2.4589 -11.1578,6.49895 -3.811,4.99646 -5.8811,4.70489 -5.0158,-0.70647 1.5139,-9.46769 6.8159,-17.27465 14.1396,-20.81997 3.1213,-1.51098 5.1087,-3.35659 6.4539,-5.99345 2.147,-4.20854 3.731,-4.83444 13.8907,-5.48881 7.888,-0.50805 12.5071,-2.7764 16.0374,-7.87558 4.0188,-5.80468 6.4651,-7.79383 15.5612,-12.65295 18.4237,-9.84196 25.5,-17.47898 25.5,-27.52075 0,-6.5033 -2.353,-10.77991 -10.7937,-19.61777 -8.7195,-9.12982 -14.9414,-14.05923 -26.285,-20.82471 -17.1746,-10.24318 -29.3508,-13.75645 -81.4213,-23.49296 -28.9268,-5.40895 -51.4873,-11.86695 -64.3115,-18.40935 -2.2599,-1.1529 -4.4179,-2.09618 -4.7956,-2.09618 -0.3777,0 -0.4248,4.3875 -0.1045,9.75 1.1691,19.57769 -3.3625,47.13318 -10.8068,65.71389 l -2.79,6.96389 2.0318,3.53611 c 2.9846,5.1944 6.1153,6.70219 10.914,5.25639 2.1244,-0.64006 5.5322,-2.5445 7.5729,-4.23209 3.3514,-2.77158 3.6017,-3.30668 2.5875,-5.5325 -2.541,-5.5769 2.492,-4.09805 5.5106,1.6192 1.4593,2.76392 1.7364,5.16248 1.4351,12.42511 -0.451,10.87424 -2.3722,15.18263 -9.7131,21.78273 -7.5732,6.80899 -12.8825,9.02103 -22.4654,9.35999 l -8.065,0.28527 -2.7147,6.60179 c -9.4461,22.972 -19.5026,39.3951 -28.9432,47.2669 -9.7459,8.12628 -25.5827,16.29947 -44.0133,22.71475 -15.10604,5.25807 -20.30594,6.37345 -37.3051,8.00195 -16.84866,1.61408 -21.79272,3.19583 -24.92327,7.97365 -2.32962,3.55544 -5.29838,4.47696 -14.87366,4.61684 -12.67659,0.18519 -16.55291,2.49634 -19.41489,11.57558 -2.68638,8.52222 -5.31646,6.78182 -5.30633,-3.51124 0.008,-7.6437 1.43822,-12.28636 5.37595,-17.44506 l 3.30051,-4.3239 -9.09102,0.4003 c -10.8433,0.47745 -13.8838,1.89441 -18.09102,8.43093 -1.78055,2.76634 -3.76925,4.683 -4.89246,4.71522 -1.71868,0.0493 -1.83514,-0.49409 -1.26825,-5.91777 0.8068,-7.71901 3.83551,-14.04483 9.37823,-19.58755 2.79724,-2.79725 3.94959,-4.57451 3.11221,-4.79996 -0.73135,-0.1969 -2.93668,-0.87154 -4.90073,-1.49921 -1.96425,-0.62766 -4.59624,-1.14121 -5.84907,-1.14121 -3.93985,0 -9.16184,3.16635 -11.80225,7.15629 -1.39901,2.11404 -3.15885,3.84371 -3.91077,3.84371 -2.01509,0 -1.70777,-7.65703 0.50171,-12.5 2.11964,-4.64606 8.21865,-10.87937 12.29845,-12.56929 3.41291,-1.41367 3.62771,-3.858 0.58273,-6.63143 -5.6724,-5.16656 -11.53694,-5.65868 -18.79738,-1.57738 -2.66318,1.49705 -5.15258,2.41148 -5.53199,2.03207 -1.05893,-1.05894 1.63615,-6.74905 5.02448,-10.60814 3.56592,-4.06136 11.69239,-8.12217 16.28184,-8.13606 2.27526,-0.007 3.68026,-0.70161 4.76402,-2.35564 2.70604,-4.12994 5.45498,-4.69847 14.29598,-2.9567 9.68215,1.90749 13.53417,1.30306 19.9879,-3.13633 4.9994,-3.43898 12.73172,-6.5611 16.24937,-6.5611 1.07488,0 4.32165,-0.89977 7.21505,-1.9995 2.8934,-1.09972 6.29116,-1.99972 7.55057,-2 10.21008,-0.002 22.54324,-16.87406 25.64406,-35.08119 2.35785,-13.84462 0.99387,-18.41046 -14.01646,-46.91931 -5.32076,-10.1056 -8.66077,-20.53897 -11.91381,-37.21581 -3.26233,-16.72444 -4.73927,-32.13936 -4.33878,-45.28419 l 0.33515,-11 -8,-5.2932 c -13.60255,-9.00012 -34.06109,-20.17634 -41.7071,-22.78401 -4.01109,-1.36798 -11.06435,-3.14774 -15.67389,-3.95502 -10.57238,-1.85155 -25.05199,-1.9752 -25.50149,-0.21777 -0.17584,0.6875 -1.065,4.4 -1.9759,8.25 -0.91091,3.85 -3.23615,10.22943 -5.16721,14.17651 -3.27322,6.69045 -5.2866,9.0714 -11.51573,13.6181 -2.45151,1.78938 -2.44177,1.79322 3.33583,1.31766 7.89381,-0.64975 14.25948,-3.92104 18.02472,-9.26282 1.68617,-2.3922 3.65415,-4.34945 4.37327,-4.34945 1.79736,0 1.68378,7.77828 -0.23228,15.90693 -2.92521,12.40982 -8.04379,19.37068 -23.83273,32.41059 -8.84291,7.30326 -12.94802,18.40328 -11.53218,31.18248 1.22254,11.03449 -1.99866,41.76505 -5.70141,54.392 -0.68848,2.34782 -0.60469,2.38271 4.53578,1.88878 7.29009,-0.70049 9.4266,-3.04654 10.07032,-11.058 0.37302,-4.64247 0.88093,-6.22278 2,-6.22278 1.15358,0 1.71364,2.07715 2.42506,8.9941 1.18788,11.54938 -0.90482,22.60954 -6.46272,34.15634 -4.68061,9.72416 -8.59047,13.21419 -18.5189,16.53038 l -6.94344,2.31918 -0.69461,7.65869 c -0.79891,8.80857 -4.56273,20.88283 -8.99049,28.84131 -7.60301,13.66568 -21.92579,30.23502 -32.18514,37.23344 -11.45516,7.81415 -28.09215,12.74779 -43.02709,12.75955 -10.76172,0.008 -17.96262,2.31859 -25.17906,8.07768 -7.16156,5.71529 -9.9007,6.69846 -20.09424,7.21256 -12.29255,0.61996 -15.72728,3.23243 -19.67749,14.96674 -1.17511,3.4908 -3.50604,1.9053 -4.22244,-2.8719 z"
       id="path1542"
       transform="translate(-187.46013,-148.92867)" />
    <path
       style="fill:#0FF"
       d="m 348.38502,288.91961 c 4.00654,-0.80131 6.08155,-4.59731 6.08155,-11.12552 0,-7.81556 -1.01588,-8.50611 -11.28735,-7.67269 l -8.71265,0.70694 0.006,4.61248 c 0.0143,11.83972 3.79493,15.50238 13.91287,13.47879 z"
       id="path1631"
       transform="translate(-187.46013,-148.92867)" />
    <path
       style="fill:#ffff00"
       d="m 371.74863,295.97286 c 2.59358,-0.88372 4.95696,-1.99728 5.25194,-2.47458 0.66538,-1.07659 -12.27824,-16.64912 -16.31494,-19.62857 l -2.95841,-2.18358 0.50105,4.44532 c 0.54259,4.81389 -1.72845,12.31944 -4.39802,14.53499 -0.84209,0.69887 -4.75591,1.52967 -8.69738,1.84623 l -7.1663,0.57556 3.40296,1.83731 c 7.0629,3.81338 20.86472,4.2892 30.3791,1.04732 z"
       id="path1629"
       transform="translate(-187.46013,-148.92867)" />
    <path
       style="fill:#ff0000"
       d="m 341.56319,408.8033 c 2.08168,-5.467 2.78324,-11.83814 1.79553,-16.30592 -2.65366,-12.00349 -2.46341,-11.70303 -9.7259,-15.36036 -12.20149,-6.14457 -20.21404,-8.0843 -33.16625,-8.02909 -10.1188,0.0431 -13.42166,0.54343 -27.5,4.1656 -26.35125,6.77981 -41.99447,9.59842 -49.71824,8.95827 -15.05016,-1.24736 -24.90225,-9.71657 -29.85837,-25.66731 l -1.7124,-5.51119 -0.71804,4.74333 c -1.32387,8.74546 0.55712,14.88667 7.81649,25.5199 5.32475,7.79947 11.91747,13.34708 18.70924,15.74336 6.40652,2.26035 22.00165,1.85856 41.48132,-1.06874 26.65273,-4.00521 28.53957,-4.17919 36.56669,-3.37163 12.67827,1.27549 28.48497,7.5334 40.43331,16.00764 2.2,1.56033 4.12364,2.85703 4.27475,2.88155 0.15111,0.0245 0.74596,-1.19291 1.32187,-2.70541 z"
       id="path1627"
       transform="translate(-187.46013,-148.92867)" />
    <path
       style="fill:#FFC0CB"
       d="m 434.63478,794.04144 c 1.76355,-0.67781 1.73159,-26.62135 -0.0381,-30.90098 -0.83175,-2.01147 -0.88352,-3.23379 -0.16731,-3.95 2.9298,-2.9298 6.24506,9.33466 4.96375,18.36284 -1.36272,9.60174 -1.12174,11.89576 1.52796,14.54545 3.01053,3.01054 10.18285,3.37253 14.64116,0.73894 3.20671,-1.89425 3.59341,-3.78919 1.37249,-6.72552 -0.9406,-1.24359 -1.4682,-4.27254 -1.4682,-8.429 0,-6.41397 -0.24963,-7.72089 -3.39304,-17.76408 -0.88383,-2.82382 -1.60696,-5.41132 -1.60696,-5.75 0,-1.37581 2.99356,-0.4947 3.85349,1.13421 1.96012,3.71295 4.14651,14.69668 4.14651,20.83077 0,5.21006 0.39994,6.81917 2.1232,8.54243 1.83848,1.83848 2.85215,2.03753 7.55912,1.48432 6.2141,-0.73035 9.85596,-2.73389 10.6771,-5.87394 0.76834,-2.93813 -0.24179,-6.80842 -2.40994,-9.23358 -0.98342,-1.1 -2.49838,-4.76116 -3.36657,-8.13592 -0.8682,-3.37476 -2.46964,-8.09976 -3.55877,-10.5 -2.26654,-4.99517 -2.60186,-8.86408 -0.76821,-8.86408 1.56955,0 4.79071,7.58287 8.17728,19.25 1.86646,6.43017 2.48076,6.73832 10.56683,5.30072 6.39498,-1.13694 8.80678,-4.13745 9.98109,-12.41738 0.96848,-6.82871 0.85217,-7.90591 -1.67222,-15.48628 -2.41907,-7.26411 -2.7183,-9.66433 -2.76099,-22.14706 -0.0469,-13.69785 0.0163,-14.11583 2.9246,-19.36676 1.63486,-2.95171 3.53857,-5.58399 4.23047,-5.84949 0.6919,-0.26551 2.95428,0.83103 5.02752,2.43676 16.32069,12.64036 33.50384,13.53676 51.97584,2.71145 5.19669,-3.04546 5.19875,-3.04226 -3.46603,-5.37249 -8.80383,-2.36763 -13.96473,-11.30997 -13.03032,-22.57777 0.57775,-6.96687 1.61987,-8.13818 5.46948,-6.14747 13.56772,7.01614 45.17695,6.8813 59.1601,-0.25237 3.88172,-1.98031 11.73957,-9.83609 10.78925,-10.78641 -0.28969,-0.28968 -1.96682,-0.0247 -3.72697,0.58893 -5.29887,1.8472 -14.72785,1.37825 -19.58731,-0.97417 -5.08651,-2.46234 -10.49141,-8.57181 -10.09431,-11.41021 0.22615,-1.61655 1.14257,-2.04847 4.7798,-2.25279 12.30267,-0.69112 41.02884,-3.47238 44.96852,-4.35384 5.40426,-1.20915 15.50181,-5.97629 19.29637,-9.11001 l 2.76489,-2.28336 -4.07104,-6 c -8.90903,-13.13036 -12.83157,-23.58406 -15.38442,-41 -0.8062,-5.5 -2.17818,-12.00579 -3.04885,-14.45731 -3.39963,-9.57222 -11.28367,-18.89103 -20.58857,-24.33537 -7.82268,-4.57708 -49.4234,-19.90673 -50.31998,-18.54265 -0.12123,0.18443 -1.03758,3.03533 -2.03635,6.33533 -3.27075,10.8068 -8.62126,18.86109 -16.44715,24.75844 -9.58122,7.22012 -48.57333,26.79601 -77.60607,38.96192 -16.8162,7.04669 -20.07418,8.8026 -28.35601,15.28269 -13.92825,10.8981 -25.83185,27.34602 -30.32944,41.908 -1.91692,6.20647 -2.06751,8.31504 -1.47713,20.6826 0.7123,14.92139 2.60916,27.66701 5.64139,37.90635 3.95586,13.35826 11.90866,53.82093 12.70335,64.63276 0.35724,4.86038 0.0192,6.9787 -1.62937,10.21016 -1.14408,2.24257 -2.08014,4.91114 -2.08014,5.93015 0,2.61451 5.2169,7.29946 9.16932,8.23437 4.49876,1.06413 4.48396,1.06295 5.99889,0.4807 z"
       id="path1625"
       transform="translate(-187.46013,-148.92867)" />
    <path
       style="fill:#FFC0CB"
       d="m 933.42782,844.91105 c 2.01227,-0.40245 3.6114,-1.52048 4.28298,-2.99443 1.32775,-2.91409 6.57539,-6.09214 12.08636,-7.31969 2.29318,-0.5108 10.69441,-1.61911 18.66941,-2.46293 18.6834,-1.97685 31.95373,-5.71781 51.26953,-14.45313 26.8106,-12.12478 36.7045,-23.17616 51.8152,-57.87757 l 5.3343,-12.25 h 8.0941 c 9.7104,0 16.1188,-2.69921 23.5962,-9.93861 5.8119,-5.62682 8.5883,-13.54744 7.2345,-20.6388 l -0.8438,-4.42016 -4.5,3.01081 c -9.7633,6.53228 -16.2549,5.83705 -21.8833,-2.34363 -1.7142,-2.49148 -3.1167,-4.96622 -3.1167,-5.49943 0,-0.53321 1.5624,-5.0151 3.472,-9.95974 8.3218,-21.54788 12.0912,-47.96051 9.8732,-69.18187 -0.6416,-6.13787 -0.7461,-6.31815 -5.1604,-8.89669 -6.5895,-3.84924 -22.9659,-17.035 -28.3093,-22.79383 -2.5435,-2.74118 -6.2918,-7.30472 -8.3296,-10.14119 l -3.7051,-5.15721 -3.6704,1.57789 c -17.8314,7.66556 -50.76107,13.31745 -69.17043,11.87208 -13.60145,-1.06789 -21.44951,-3.01898 -36.37773,-9.0438 -1.80618,-0.72895 -1.85842,-0.0755 -1.3709,17.14818 0.79268,28.00462 7.37699,57.49566 16.28834,72.95519 10.60661,18.4005 14.41128,28.44464 14.44551,38.13543 0.0478,13.53302 -7.43955,31.87415 -16.32823,39.99791 -5.83005,5.32833 -9.70973,6.89508 -25.74014,10.39476 -5.27073,1.15068 -11.34573,3.1556 -13.5,4.45538 -10.84626,6.5441 -11.72931,6.86645 -18.41685,6.72299 -3.575,-0.0767 -8.48903,-0.69549 -10.92007,-1.37512 -4.3969,-1.22922 -4.4353,-1.21773 -7.32585,2.19188 -2.61642,3.08625 -2.86714,3.9981 -2.51765,9.15653 0.44832,6.61715 1.11004,7.66028 3.79548,5.9832 1.06752,-0.66668 3.18456,-1.21559 4.70452,-1.21979 3.80592,-0.0105 14.56833,-3.3846 18.84546,-5.90817 4.15394,-2.45089 6.41811,-2.66415 6.41811,-0.60451 0,2.72935 -16.19528,9.52032 -22.7043,9.52032 -6.78462,0 -9.80809,6.95566 -6.30284,14.5 3.18944,6.8646 5.9872,8.06977 9.68147,4.1704 1.19588,-1.26228 5.47088,-3.56829 9.5,-5.12447 4.02912,-1.55618 8.00067,-3.36333 8.82567,-4.01589 2.36835,-1.87333 9.01859,-5.53004 10.05716,-5.53004 0.51856,0 0.94284,0.68059 0.94284,1.51242 0,1.48203 -7.56233,6.73886 -13.5,9.38431 -1.65,0.73514 -3.78139,1.73411 -4.73643,2.21994 -0.95504,0.48583 -2.45215,0.88333 -3.32692,0.88333 -0.87477,0 -2.89734,1.30685 -4.4946,2.90411 -2.89203,2.89202 -2.89812,2.92401 -1.46373,7.69011 0.79221,2.63231 2.72573,6.07137 4.29671,7.64235 2.68224,2.68224 3.1255,2.79585 7.27259,1.86407 2.42894,-0.54575 4.57993,-1.48328 4.77997,-2.0834 0.8162,-2.44862 5.60951,-7.17453 8.54209,-8.42198 1.72167,-0.73236 5.27565,-3.23604 7.89773,-5.56372 3.07756,-2.73204 5.33326,-4.01502 6.36381,-3.61956 2.70283,1.03717 -0.43018,4.47634 -9.98146,10.95686 -8.12964,5.51595 -8.64976,6.08152 -8.64976,9.40561 0,3.42357 3.26032,9.01902 6.95931,11.94375 1.71538,1.35632 6.13385,1.61317 11.00194,0.63955 z"
       id="path1623"
       transform="translate(-187.46013,-148.92867)" />
    <path
       style="display:inline;fill:#FFC0CB"
       d="m 678.24535,851.94754 c 1.66583,-0.33316 4.60545,-2.0929 6.53247,-3.91053 1.92703,-1.81763 6.80783,-4.85892 10.84622,-6.75843 6.61436,-3.11115 8.483,-3.51337 18.84253,-4.0558 30.45112,-1.59444 48.89622,-12.07553 66.78136,-37.9473 10.02514,-14.50188 14.47521,-25.87337 15.8301,-40.4515 l 0.66386,-7.14283 4.61234,-1.93599 c 2.53679,-1.0648 5.87644,-2.23381 7.42145,-2.59781 4.3802,-1.03197 11.13123,-7.95558 14.00818,-14.36627 3.11315,-6.93702 5.68271,-16.41807 5.68271,-20.96782 v -3.31983 l -3.07847,2.27601 c -2.49481,1.84449 -4.37446,2.27675 -9.91412,2.27993 -3.75962,0.002 -7.15564,-0.3149 -7.54672,-0.70458 -0.39108,-0.38968 0.0236,-2.5446 0.92152,-4.78871 3.50256,-8.75376 5.8623,-27.55995 6.08596,-48.50278 0.18784,-17.58778 0.46487,-20.63965 2.29695,-25.30344 2.77016,-7.05183 7.5064,-13.0466 14.05986,-17.79592 10.25968,-7.43522 15.99032,-15.32371 18.81567,-25.90064 1.9423,-7.2712 1.78769,-8.25103 -0.90311,-5.72316 -5.60323,5.26397 -17.75031,8.00482 -28.73754,6.4843 -7.1299,-0.9867 -7.0848,-2.71981 0.14727,-5.65915 9.23132,-3.75189 13.21659,-7.63345 17.24988,-16.80102 5.24534,-11.92254 6.97123,-26.44234 4.19605,-35.30097 l -1.2531,-4 -1.63061,3.77773 c -1.27815,2.96116 -2.77395,4.31002 -6.92005,6.24023 -9.17794,4.27279 -16.93714,2.51253 -24.14067,-5.47659 -6.69156,-7.42132 -15.41445,-28.95794 -17.33161,-42.79137 -0.48375,-3.4905 -0.30006,-4.25 1.02786,-4.25 0.94914,0 1.86909,1.13569 2.22759,2.75 7.11261,32.02728 16.97578,48.25 29.33526,48.25 5.16311,0 11.69495,-3.20647 12.69761,-6.23323 0.41299,-1.24672 0.69241,-4.84112 0.62093,-7.98755 -0.0715,-3.14644 0.23819,-5.94833 0.68816,-6.22642 2.42547,-1.49902 7.41981,9.53146 9.20212,20.32376 l 1.12826,6.83188 10.77905,0.61673 c 25.88648,1.48112 42.35395,8.08472 75.59481,30.3142 14.20207,9.49749 21.58196,12.69714 34.49182,14.95438 20.21959,3.53532 58.1493,-1.18599 77.1889,-9.60812 l 4.5928,-2.03161 -3.9804,-7.37948 c -14.5897,-27.04838 -18.9004,-56.98788 -18.9079,-131.32454 0,-35.11292 0.1874,-40.25 1.496,-40.25 1.3001,0 1.5007,4.03025 1.5055,30.25 0.01,53.71107 2.8607,91.76531 8.4157,112.33945 6.6019,24.45113 20.1031,46.24273 37.9503,61.25367 24.2052,20.35848 52.6959,31.18539 105.6285,40.14055 50.3407,8.51665 74.5573,18.88789 97.3701,41.7007 9.4521,9.45207 12.7824,15.1094 13.4199,22.7967 0.9013,10.86876 -8.8395,22.34721 -26.7881,31.56678 -8.4991,4.3657 -10.744,6.04215 -14.0086,10.46128 -5.5816,7.55548 -9.4056,9.5987 -19.4221,10.37756 -4.5665,0.35508 -8.9653,1.19549 -9.7751,1.86758 -0.8098,0.67209 -2.0322,3.09032 -2.7163,5.37384 -1.0386,3.46625 -0.9987,4.66543 0.2412,7.26188 0.8169,1.7105 1.9692,4.34751 2.5607,5.86001 1.0236,2.61738 3.1183,3.82281 3.1183,1.79446 0,-0.52555 3.8932,-3.11305 8.6515,-5.75 4.7584,-2.63695 10.6356,-6.76972 13.0605,-9.18393 3.1774,-3.16332 4.713,-4.08552 5.4972,-3.30135 2.5108,2.51085 -4.5684,9.00322 -17.3369,15.89982 -5.6342,3.04312 -6.8074,4.13155 -7.3034,6.77532 -0.325,1.73238 -0.023,4.76788 0.6701,6.74556 1.4377,4.09958 7.1274,10.77012 9.1865,10.77012 0.7573,0 2.2717,-1.51652 3.3653,-3.37004 1.0936,-1.85351 3.2184,-4.21601 4.7217,-5.25 5.6176,-3.86383 12.7374,-10.95022 15.1667,-15.09555 1.381,-2.35643 2.8915,-4.28441 3.3568,-4.28441 5.6275,0 -4.8397,15.06339 -14.8649,21.39201 -2.2468,1.41834 -4.5284,3.40702 -5.0701,4.4193 -1.9522,3.64773 3.1828,12.7719 9.794,17.40256 2.1876,1.53227 2.5146,1.47582 6.0654,-1.04714 2.7019,-1.91981 4.0687,-3.84396 4.88,-6.86983 0.7069,-2.6367 2.8386,-5.99079 5.7199,-9 2.5262,-2.63829 5.2478,-6.27898 6.048,-8.09041 1.433,-3.24385 3.8691,-5.06238 5.1141,-3.81747 1.1328,1.13288 -2.5791,7.50228 -8.3073,14.25465 -5.1683,6.0923 -5.5429,6.86916 -4.9302,10.22479 0.8519,4.6657 2.6094,7.33898 7.0538,10.72888 l 3.5799,2.73051 5.2386,-1.65132 c 5.8336,-1.83888 9.6428,-4.8255 9.6428,-7.5605 0,-2.57308 2.2934,-4.2948 12.5277,-9.40504 9.0534,-4.5206 13.7457,-6.11104 40.2581,-13.64535 27.0832,-7.69652 44.8783,-15.2609 52.929,-22.49914 6.045,-5.43501 11.4007,-15.24841 13.816,-25.3158 1.3609,-5.67235 1.6262,-9.9142 1.2195,-19.5 -0.627,-14.77661 -3.4404,-24.61216 -10.1504,-35.4859 -5.6163,-9.10125 -19.348,-25.11216 -28.556,-33.29572 -3.8741,-3.44315 -7.0439,-6.79597 -7.0439,-7.45072 0,-0.65475 2.6802,-1.93563 5.9561,-2.84639 7.8403,-2.17982 11.9528,-5.97402 16.1254,-14.87764 3.2421,-6.91785 3.4185,-7.86207 3.4185,-18.29433 0,-7.07237 -0.4896,-12.16044 -1.3713,-14.25 -1.5753,-3.73333 -2.7182,-4.11867 -3.6363,-1.22598 -0.3533,1.11321 -3.1341,4.71529 -6.1794,8.00462 -8.6649,9.35916 -17.4929,10.98689 -28.7141,5.2944 -3.8235,-1.93967 -11.5989,-8.16073 -11.5989,-9.28023 0,-0.4528 3.0375,-1.88414 6.75,-3.18075 8.7367,-3.05133 15.2178,-9.18195 17.301,-16.36543 1.9156,-6.60559 1.9565,-27.55873 0.064,-32.91988 l -1.3848,-3.92325 -1.6399,3.17126 c -0.9019,1.74419 -2.6382,3.87048 -3.8583,4.72508 -3.7418,2.62083 -12.3758,4.72437 -19.7619,4.81465 -9.6159,0.11753 -16.543,-3.29599 -26.2122,-12.91673 -5.4481,-5.42084 -8.1725,-9.15497 -11,-15.07662 -3.7312,-7.81454 -3.758,-7.96102 -3.7316,-20.37114 0.033,-15.23538 2.0531,-27.30269 8.6236,-51.5 6.5394,-24.08321 8.9042,-37.33148 9.5496,-53.5 0.6135,-15.37052 -1.0909,-27.30493 -5.239,-36.6846 -4.7273,-10.68922 0.9826,-9.35964 8.1532,1.89852 1.3011,2.04265 3.5624,6.76765 5.0253,10.5 4.848,12.36916 9.4279,16.43653 24.3173,21.59601 6.9207,2.39817 9.519,2.83404 14.3065,2.39993 7.3839,-0.66955 14.651,-4.20139 21.8462,-10.61724 5.634,-5.02379 17.5896,-19.72706 16.7353,-20.5814 -0.2514,-0.25135 -2.2318,0.059 -4.4008,0.68958 -2.1691,0.63062 -7.9938,1.16265 -12.9438,1.18229 -12.4514,0.0494 -18.1348,-2.58311 -25.9678,-12.02802 -8.4894,-10.23644 -15.8199,-21.66274 -21.0779,-32.85507 -12.8512,-27.35487 -17.9295,-37.00388 -25.4125,-48.28451 -7.8835,-11.8845 -23.1099,-31.02178 -33.495,-42.09829 -4.6524,-4.96212 -18.6257,-14.9984 -34.5468,-24.81317 -3.575,-2.20385 -11.324,-6.99003 -17.22,-10.63597 -21.9269,-13.55902 -44.2168,-24.32698 -73.28,-35.40059 -33.5832,-12.79581 -42.5249,-14.95657 -80,-19.33196 -12.5933,-1.47032 -95.67727,-0.73059 -113.00003,1.00609 -16.65796,1.67003 -30.09597,4.48215 -43,8.99845 -17.58219,6.15361 -106.18041,36.97581 -115.38852,40.14221 -11.19876,3.85093 -25.50937,6.81944 -37.11148,7.6982 l -9.5,0.71954 12,6.95616 c 26.4883,15.35475 38.0943,20.38244 55.50614,24.04513 8.51144,1.79044 31.44425,3.75504 38.8335,3.32677 4.51057,-0.26142 5.66036,-0.0234 5.66036,1.17194 0,2.24037 -30.8211,1.96314 -42.5,-0.38228 -19.06671,-3.82908 -30.5373,-8.45652 -52.87238,-21.32968 -17.82805,-10.27545 -44.23059,-23.39308 -55.62762,-27.63758 -3.85,-1.43382 -13.975,-4.50378 -22.5,-6.82212 -15.36739,-4.17912 -15.64544,-4.21521 -32.5,-4.21891 -15.51993,-0.003 -17.74004,0.22445 -25.5,2.61725 -25.71748,7.93001 -57.19679,25.8972 -87.81636,50.12225 l -9.92076,7.84892 0.97673,3.84803 c 1.52454,6.00621 -0.53274,23.73037 -3.50904,30.23145 -5.14835,11.24549 -12.42978,16.47938 -23.59353,16.95903 -3.37491,0.145 -6.13639,0.52123 -6.13662,0.83606 -2.3e-4,0.31483 1.39928,3.15668 3.11002,6.31523 1.71074,3.15855 3.95584,9.12583 4.98911,13.26062 2.58902,10.36043 8.19713,20.75393 12.69996,23.53684 4.84931,2.99704 16.92685,3.26422 20.05241,0.44361 1.22632,-1.10668 2.75896,-1.60828 3.75095,-1.22762 1.41415,0.54266 1.57912,1.5836 1.05129,6.63359 -0.72142,6.90222 -3.25777,12.41391 -8.26105,17.95194 -5.12462,5.67234 -10.49478,7.41372 -20.86727,6.7666 l -8.4512,-0.52725 1.8158,3.63701 c 0.99868,2.00036 3.02205,6.83622 4.49635,10.74636 5.91971,15.70016 17.54307,22.56344 30.11321,17.78103 8.25074,-3.13906 7.8389,-3.26919 7.30306,2.30744 -0.97146,10.1102 -7.21579,18.71939 -16.80306,23.16676 -4.4038,2.04284 -7.39343,2.61837 -15,2.88759 -9.83727,0.34819 -13.22418,-0.52336 -15.36647,-3.95421 -1.7815,-2.85304 0.0252,-3.14156 4.8988,-0.78231 7.65935,3.70783 20.71007,1.72815 28.69241,-4.35238 4.32967,-3.29811 8.06283,-8.88148 9.31489,-13.93147 0.66013,-2.66255 0.58411,-2.72934 -1.99175,-1.75 -1.47294,0.56001 -5.71068,1.0182 -9.4172,1.0182 -5.71669,0 -7.41361,-0.43475 -11.1849,-2.86558 -7.13772,-4.60069 -9.82402,-8.2381 -14.42914,-19.53789 -2.38511,-5.85244 -5.78497,-12.89795 -7.55524,-15.65669 -1.77028,-2.75874 -2.91862,-5.31595 -2.55188,-5.68269 0.36675,-0.36675 2.11214,-0.0685 3.87865,0.66288 1.7665,0.73133 5.81923,2.01566 9.00605,2.85407 7.48042,1.96799 15.21593,0.4729 20.20145,-3.90444 3.63047,-3.18733 8.50463,-11.96978 8.50463,-15.32342 0,-1.94144 -0.46842,-2.0398 -8.07014,-1.69458 -9.74496,0.44254 -15.79444,-1.4965 -19.39459,-6.21654 -3.53272,-4.63163 -8.22317,-15.15453 -10.08933,-22.63512 -1.56094,-6.25715 -6.04785,-15.64284 -9.18582,-19.21485 -0.82856,-0.94317 -4.03854,-2.44547 -7.1333,-3.33845 -3.09475,-0.89298 -7.20182,-2.58498 -9.12682,-3.76 -5.2368,-3.19656 -12.00143,-9.72115 -11.98949,-11.56406 0.0159,-2.45075 7.88486,-12.43144 14.5732,-18.48404 9.85045,-8.91414 17.94112,-13.64093 23.32133,-13.62495 5.95985,0.0177 9.09496,0.89315 9.09496,2.53964 0,0.97251 -1.66219,1.27384 -6.3138,1.14459 -5.86357,-0.16292 -6.77275,0.12391 -12.75,4.0224 -3.53991,2.3088 -8.9112,6.71218 -11.9362,9.78528 l -5.5,5.58747 3.71788,-1.54652 c 7.03148,-2.92486 13.13145,-1.67341 16.77334,3.44117 2.38768,3.35317 3.21505,9.04889 1.40753,9.68952 -0.60569,0.21466 -1.8921,-1.68049 -2.85868,-4.21145 -1.28971,-3.37707 -2.64468,-5.02486 -5.09128,-6.19156 -3.05894,-1.45871 -3.69006,-1.45376 -7.65374,0.06 -4.49512,1.7167 -11.79505,7.1263 -11.79505,8.7407 0,0.5111 2.71119,2.92513 6.02487,5.36452 4.65816,3.42915 7.74677,4.81834 13.61559,6.12403 9.34629,2.07935 19.74046,1.5621 24.52862,-1.22063 4.59725,-2.67177 10.4785,-11.65781 12.30628,-18.80289 1.63618,-6.39611 2.09121,-23.07171 0.6538,-23.96007 -0.47896,-0.29602 -1.13918,-1.87992 -1.46715,-3.51978 -1.40326,-7.01632 -13.69136,-16.02878 -21.88387,-16.05028 -8.59517,-0.0226 -23.13279,4.07343 -34.09567,9.6065 -14.27414,7.2043 -19.62784,8.47446 -36.44543,8.64667 -16.11455,0.16501 -17.5887,-0.24489 -35.06377,-9.74995 -12.60758,-6.85753 -14.59243,-7.47477 -32.39541,-10.07417 -14.99903,-2.19 -22.57557,-1.58824 -35.27786,2.80192 -18.40451,6.36094 -24.2895,10.55009 -26.53478,18.88841 -0.59805,2.22101 -0.78165,5.46305 -0.40798,7.20453 1.94637,9.07118 4.36599,9.86307 26.61625,8.71091 15.63988,-0.80987 18.21129,-1.20603 25.79669,-3.97436 5.09615,-1.85987 8.78683,-2.71322 9.34039,-2.15966 1.62353,1.62353 -0.18564,2.89616 -8.10486,5.70123 l -7.76109,2.74906 5.52769,5.57808 c 3.04023,3.06795 7.34504,7.59926 9.56625,10.06957 13.1015,14.57084 23.41129,19.81531 42.21144,21.47245 6.04598,0.53293 8.25,1.10013 8.25,2.12312 0,1.03339 -1.49333,1.39442 -5.75,1.39013 -13.72701,-0.0138 -26.60651,-3.91517 -33.78485,-10.2338 l -4.54277,-3.9987 -6.21119,2.80688 c -10.57545,4.77912 -30.66802,4.44659 -37.79104,-0.62545 -4.29553,-3.05869 -5.74262,-6.6154 -7.06303,-17.35979 l -1.17772,-9.58337 -4.5897,-0.004 c -5.09318,-0.004 -10.26781,-2.59203 -12.12618,-6.06443 -0.64027,-1.19635 -1.46794,-4.25793 -1.83927,-6.80351 l -0.67515,-4.62806 -4.97455,0.0512 c -4.87011,0.0501 -16.86002,3.10761 -46.97455,11.97871 -20.37685,6.00259 -22.54967,6.41756 -33.75,6.44564 -9.43888,0.0237 -9.74982,0.0962 -9.74442,2.27445 0.0113,4.56358 2.2194,9.99326 5.57396,13.70636 l 3.44644,3.8148 3.69845,-1.88558 c 5.48592,-2.79688 13.62681,-2.51151 20.07923,0.70387 2.85799,1.42419 5.19634,3.22419 5.19634,4 0,1.97257 -2.38218,1.75687 -6.19326,-0.56078 -5.1721,-3.14535 -10.82255,-3.55761 -16.19405,-1.18154 l -4.61269,2.04041 0.0174,7.80623 c 0.0241,10.81218 2.24381,20.38023 6.93762,29.90398 3.94775,8.00998 5.80192,10.1108 17.65031,19.99826 l 4.90836,4.09602 5.95896,-4.83447 c 8.38721,-6.80452 11.06461,-7.85756 19.97814,-7.85756 8.19019,0 11.22194,1.0526 17.70641,6.14755 3.11691,2.44899 4.04987,2.72422 6.3151,1.86298 4.4729,-1.70059 9.23965,-1.1465 17.48216,2.03215 12.26594,4.73025 15.32476,9.08747 21.61317,30.78747 2.98799,10.3109 3.06499,16.29402 0.31424,24.41587 -2.57509,7.6032 -8.06504,13.6849 -15.28305,16.93038 -4.56773,2.05382 -6.60912,2.29079 -19.59882,2.27509 -15.60346,-0.0189 -24.39732,-1.65404 -45.9152,-8.5377 -8.20716,-2.62551 -9.60049,-2.82667 -10.85932,-1.56784 -1.24827,1.24827 -1.25658,2.306 -0.0613,7.79909 1.26445,5.81098 1.21562,6.92659 -0.57052,13.033 -1.67471,5.72543 -1.77957,7.25806 -0.7351,10.74417 2.16506,7.22632 3.70221,7.57779 33.14145,7.57779 22.53533,0 26.16701,0.22422 31.23716,1.92858 7.51601,2.52654 17.8141,10.39196 24.7217,18.8818 6.40459,7.8716 11.70039,11.71553 20.00377,14.51962 8.8524,2.98951 25.02721,5.58209 29.54189,4.73513 l 3.85083,-0.72242 -3.92767,-2.17547 c -5.31818,-2.94564 -8.42769,-9.17343 -8.42769,-16.87913 0,-6.68429 0.0397,-6.70196 9.5399,-4.24956 7.63217,1.97018 16.91107,6.34462 21.76601,10.26134 2.09325,1.68874 6.45598,6.43137 9.69495,10.53919 15.57194,19.74907 28.59711,27.29837 48.22705,27.95206 5.71066,0.19016 6.69727,-0.0972 11.02209,-3.21066 2.6125,-1.88074 4.75,-3.73028 4.75,-4.1101 0,-0.37981 -2.49622,-0.94821 -5.54716,-1.26309 -10.06568,-1.03887 -17.54161,-7.17164 -21.52646,-17.65893 -3.53241,-9.29653 -2.81417,-9.70496 8.18279,-4.65313 10.97671,5.04253 22.16668,8.27565 42.31412,12.22581 38.64464,7.57679 70.85479,16.82498 94.18561,27.04262 8.43997,3.69624 12.03073,5.93859 17.0932,10.67427 10.31363,9.6479 14.23846,18.09164 16.76047,36.05791 2.80919,20.01201 7.73371,30.31739 24.28257,50.81531 5.76621,7.14219 17.88258,17.84992 27.75486,24.52811 11.4787,7.76485 11.79536,8.28982 15.3684,25.4787 2.96015,14.24045 4.95548,24.98426 8.78118,47.28204 2.61035,15.21421 0.47887,29.25784 -5.43777,35.82773 -3.53339,3.92351 -13.73705,7.66845 -27.44087,10.07134 -14.38866,2.52297 -15.40224,2.88588 -23.641,8.46466 -5.86692,3.97271 -9.36874,4.37973 -22.86208,2.65728 -7.0703,-0.90254 -8.69625,-0.12964 -10.92034,5.19107 -1.04576,2.50178 -1.10375,4.32613 -0.26223,8.25 1.1894,5.54598 1.15595,5.51436 4.14185,3.91636 1.15262,-0.61686 4.89982,-1.70827 8.32712,-2.42536 3.42731,-0.71708 9.12748,-2.46238 12.66706,-3.87844 7.30218,-2.92133 8.77868,-3.13082 8.77868,-1.24558 0,1.63364 -7.45587,5.08423 -15.5,7.17343 -13.8529,3.59784 -13.2891,3.32844 -14.47296,6.91559 -1.36896,4.14797 -0.52725,8.05731 2.65515,12.33192 2.89207,3.88463 4.42694,4.04996 7.6526,0.82431 1.33413,-1.33414 4.65871,-3.08884 7.38796,-3.89933 6.23605,-1.85191 12.12963,-4.83844 16.03808,-8.12718 1.66533,-1.40129 3.75042,-2.5478 4.63353,-2.5478 6.55415,0 -8.57934,11.08782 -18.942,13.87819 -6.63586,1.78685 -7.91509,3.42662 -7.56751,9.70037 0.0633,1.1432 1.52283,4.20376 3.24332,6.80123 2.97253,4.48769 3.33164,4.70769 7.21736,4.42144 3.39911,-0.2504 4.48568,-0.89139 6.43872,-3.79837 1.29224,-1.92343 4.68193,-4.77317 7.53264,-6.33277 2.85071,-1.5596 6.77708,-4.37339 8.72527,-6.25286 3.42619,-3.30535 6.95784,-4.51191 6.95784,-2.3771 0,1.36431 -7.80116,8.54408 -11,10.1238 -5.62967,2.78017 -8.73361,5.71642 -8.49355,8.0347 0.13107,1.26575 0.29573,3.14153 0.36593,4.16839 0.0702,1.02686 1.92814,3.61436 4.12876,5.75 4.11147,3.99004 6.34687,4.56338 12.77764,3.27722 z"
       id="path1621"
       transform="translate(-187.46013,-148.92867)" />
  </g>
</svg>
