<svg width="128" height="128" viewBox="0 0 128 128" fill="none" xmlns="http://www.w3.org/2000/svg">
<path d="M64 12C77.7913 12 91.0177 17.4786 100.77 27.2304C110.521 36.9823 116 50.2087 116 64C116 77.7913 110.521 91.0177 100.77 100.77C91.0177 110.521 77.7913 116 64 116C50.2087 116 36.9823 110.521 27.2304 100.77C17.4786 91.0177 12 77.7913 12 64C12 50.2087 17.4786 36.9823 27.2304 27.2304C36.9823 17.4786 50.2087 12 64 12ZM64 128C80.9739 128 97.2525 121.257 109.255 109.255C121.257 97.2525 128 80.9739 128 64C128 47.0261 121.257 30.7475 109.255 18.7452C97.2525 6.74284 80.9739 0 64 0C47.0261 0 30.7475 6.74284 18.7452 18.7452C6.74284 30.7475 0 47.0261 0 64C0 80.9739 6.74284 97.2525 18.7452 109.255C30.7475 121.257 47.0261 128 64 128ZM92.25 52.25C94.6 49.9 94.6 46.1 92.25 43.775C89.9 41.45 86.1 41.425 83.775 43.775L56.025 71.525L44.275 59.775C41.925 57.425 38.125 57.425 35.8 59.775C33.475 62.125 33.45 65.925 35.8 68.25L51.8 84.25C54.15 86.6 57.95 86.6 60.275 84.25L92.25 52.25Z" fill="#00FF88"/>
</svg>
