<svg width="42" height="48" viewBox="0 0 42 48" fill="none" xmlns="http://www.w3.org/2000/svg">
<path d="M21.0047 11.6934C15.0455 11.6934 10.2388 17.188 10.2388 24C10.2388 30.812 15.0455 36.3066 21.0047 36.3066C26.9639 36.3066 31.7706 30.812 31.7706 24C31.7706 17.188 26.9639 11.6934 21.0047 11.6934ZM21.0047 32.0009C17.1537 32.0009 14.0055 28.4128 14.0055 24C14.0055 19.5872 17.1443 15.9991 21.0047 15.9991C24.865 15.9991 28.0039 19.5872 28.0039 24C28.0039 28.4128 24.8557 32.0009 21.0047 32.0009ZM34.722 11.19C34.722 12.7859 33.5977 14.0605 32.2109 14.0605C30.8148 14.0605 29.6998 12.7752 29.6998 11.19C29.6998 9.60482 30.8242 8.31954 32.2109 8.31954C33.5977 8.31954 34.722 9.60482 34.722 11.19ZM41.8524 14.1033C41.6931 10.2582 40.9248 6.85217 38.4606 4.04597C36.0057 1.23976 33.0261 0.361486 29.6624 0.168694C26.1955 -0.0562312 15.8045 -0.0562312 12.3376 0.168694C8.98327 0.350775 6.00368 1.22905 3.53943 4.03526C1.07518 6.84146 0.31623 10.2475 0.147574 14.0926C-0.0491913 18.0556 -0.0491913 29.9337 0.147574 33.8967C0.30686 37.7418 1.07518 41.1478 3.53943 43.954C6.00368 46.7602 8.9739 47.6385 12.3376 47.8313C15.8045 48.0562 26.1955 48.0562 29.6624 47.8313C33.0261 47.6492 36.0057 46.771 38.4606 43.954C40.9154 41.1478 41.6838 37.7418 41.8524 33.8967C42.0492 29.9337 42.0492 18.0663 41.8524 14.1033ZM37.3737 38.1488C36.6428 40.2481 35.228 41.8654 33.3822 42.7116C30.6181 43.9647 24.0592 43.6756 21.0047 43.6756C17.9501 43.6756 11.3819 43.954 8.62722 42.7116C6.79074 41.8762 5.37591 40.2588 4.63569 38.1488C3.53943 34.9892 3.79242 27.4917 3.79242 24C3.79242 20.5083 3.5488 13.0001 4.63569 9.85117C5.36654 7.75187 6.78137 6.13455 8.62722 5.28841C11.3913 4.03526 17.9501 4.32444 21.0047 4.32444C24.0592 4.32444 30.6274 4.04597 33.3822 5.28841C35.2186 6.12384 36.6335 7.74116 37.3737 9.85117C38.4699 13.0108 38.217 20.5083 38.217 24C38.217 27.4917 38.4699 34.9999 37.3737 38.1488Z" fill="white"/>
</svg>
