<svg width="42" height="48" viewBox="0 0 42 48" fill="none" xmlns="http://www.w3.org/2000/svg">
<path d="M39 0H2.99062C1.34062 0 0 1.55357 0 3.46071V44.5393C0 46.4464 1.34062 48 2.99062 48H39C40.65 48 42 46.4464 42 44.5393V3.46071C42 1.55357 40.65 0 39 0ZM12.6937 41.1429H6.46875V18.2357H12.7031V41.1429H12.6937ZM9.58125 15.1071C7.58437 15.1071 5.97188 13.2536 5.97188 10.9821C5.97188 8.71071 7.58437 6.85714 9.58125 6.85714C11.5687 6.85714 13.1906 8.71071 13.1906 10.9821C13.1906 13.2643 11.5781 15.1071 9.58125 15.1071ZM36.0281 41.1429H29.8031V30C29.8031 27.3429 29.7562 23.925 26.5687 23.925C23.325 23.925 22.8281 26.8179 22.8281 29.8071V41.1429H16.6031V18.2357H22.575V21.3643H22.6594C23.4937 19.5643 25.5281 17.6679 28.5563 17.6679C34.8563 17.6679 36.0281 22.4143 36.0281 28.5857V41.1429Z" fill="white"/>
</svg>
