<svg width="48" height="48" viewBox="0 0 48 48" fill="none" xmlns="http://www.w3.org/2000/svg">
<path d="M21.2345 8.70938C22.5751 12.7313 21.2063 16.7906 18.1782 17.7844C15.1501 18.7781 11.6063 16.3219 10.2657 12.3C8.92508 8.27813 10.2938 4.21876 13.322 3.22501C16.3501 2.23126 19.8938 4.68751 21.2345 8.70938ZM9.41258 18.6188C11.1845 21.6563 10.7532 25.1906 8.45633 26.5031C6.15945 27.8156 2.85945 26.4188 1.09695 23.3813C-0.665549 20.3438 -0.253049 16.8094 2.04383 15.4969C4.3407 14.1844 7.6407 15.5813 9.4032 18.6188H9.41258ZM6.48758 37.6125C11.4001 24.3656 20.1282 21 24.0001 21C27.872 21 36.6001 24.3656 41.5126 37.6125C41.8501 38.5219 42.0001 39.4969 42.0001 40.4719V40.6219C42.0001 43.0406 40.0407 45 37.6219 45C36.5438 45 35.4751 44.8688 34.4344 44.6063L26.1845 42.5438C24.7501 42.1875 23.2501 42.1875 21.8157 42.5438L13.5657 44.6063C12.5251 44.8688 11.4563 45 10.3782 45C7.95945 45 6.00008 43.0406 6.00008 40.6219V40.4719C6.00008 39.4969 6.15008 38.5219 6.48758 37.6125ZM39.5438 26.5031C37.2469 25.1906 36.8157 21.6563 38.5876 18.6188C40.3595 15.5813 43.6501 14.1844 45.947 15.4969C48.2438 16.8094 48.6751 20.3438 46.9032 23.3813C45.1313 26.4188 41.8407 27.8156 39.5438 26.5031ZM29.072 17.7844C26.0438 16.7906 24.6751 12.7313 26.0157 8.70938C27.3563 4.68751 30.9001 2.23126 33.9282 3.22501C36.9563 4.21876 38.3251 8.27813 36.9845 12.3C35.6438 16.3219 32.1001 18.7781 29.072 17.7844Z" fill="#FFC0CB"/>
</svg>
